<svg width="394" height="482" viewBox="0 0 394 482" fill="none" xmlns="http://www.w3.org/2000/svg">
<g clip-path="url(#clip0_41_687)">
<g opacity="0.38">
<g opacity="0.4">
<path d="M9.45257 4.72295C9.45257 2.11453 7.33654 6.35503e-06 4.72628 6.46913e-06C2.11603 6.58323e-06 -3.20465e-07 2.11453 -2.06448e-07 4.72295C-9.24302e-08 7.33137 2.11603 9.44592 4.72628 9.44592C7.33654 9.44592 9.45257 7.33137 9.45257 4.72295Z" fill="#0A003A" fill-opacity="0.37"/>
<path d="M56.7475 4.72295C56.7475 2.11453 54.6315 6.35503e-06 52.0212 6.46913e-06C49.411 6.58323e-06 47.2949 2.11453 47.2949 4.72295C47.2949 7.33137 49.411 9.44592 52.0212 9.44592C54.6315 9.44592 56.7475 7.33137 56.7475 4.72295Z" fill="#0A003A" fill-opacity="0.37"/>
<path d="M104.032 4.72295C104.032 2.11453 101.916 6.35503e-06 99.3054 6.46913e-06C96.6951 6.58323e-06 94.5791 2.11453 94.5791 4.72295C94.5791 7.33137 96.6951 9.44592 99.3054 9.44592C101.916 9.44592 104.032 7.33137 104.032 4.72295Z" fill="#0A003A" fill-opacity="0.37"/>
<path d="M151.317 4.72295C151.317 2.11453 149.201 6.35503e-06 146.591 6.46913e-06C143.98 6.58323e-06 141.864 2.11453 141.864 4.72295C141.864 7.33137 143.98 9.44592 146.591 9.44592C149.201 9.44592 151.317 7.33137 151.317 4.72295Z" fill="#0A003A" fill-opacity="0.37"/>
<path d="M198.612 4.72295C198.612 2.11453 196.496 6.35503e-06 193.885 6.46913e-06C191.275 6.58323e-06 189.159 2.11453 189.159 4.72295C189.159 7.33137 191.275 9.44592 193.885 9.44592C196.496 9.44592 198.612 7.33137 198.612 4.72295Z" fill="#0A003A" fill-opacity="0.37"/>
<path d="M245.896 4.72295C245.896 2.11453 243.78 6.35503e-06 241.17 6.46913e-06C238.559 6.58323e-06 236.443 2.11453 236.443 4.72295C236.443 7.33137 238.559 9.44592 241.17 9.44592C243.78 9.44592 245.896 7.33137 245.896 4.72295Z" fill="#0A003A" fill-opacity="0.37"/>
<path d="M293.191 4.72295C293.191 2.11453 291.075 6.35503e-06 288.465 6.46913e-06C285.854 6.58322e-06 283.738 2.11453 283.738 4.72295C283.738 7.33137 285.854 9.44592 288.465 9.44592C291.075 9.44592 293.191 7.33137 293.191 4.72295Z" fill="#0A003A" fill-opacity="0.37"/>
<path d="M340.476 4.72295C340.476 2.11453 338.36 6.35503e-06 335.75 6.46913e-06C333.139 6.58323e-06 331.023 2.11453 331.023 4.72295C331.023 7.33137 333.139 9.44592 335.75 9.44592C338.36 9.44592 340.476 7.33137 340.476 4.72295Z" fill="#0A003A" fill-opacity="0.37"/>
<path d="M387.76 4.72295C387.76 2.11453 385.644 6.35503e-06 383.034 6.46913e-06C380.424 6.58323e-06 378.308 2.11453 378.308 4.72295C378.308 7.33137 380.424 9.44592 383.034 9.44592C385.644 9.44592 387.76 7.33137 387.76 4.72295Z" fill="#0A003A" fill-opacity="0.37"/>
<path d="M9.45257 51.9741C9.45257 49.3657 7.33654 47.2511 4.72628 47.2511C2.11603 47.2511 -3.20464e-07 49.3657 -2.06446e-07 51.9741C-9.24288e-08 54.5825 2.11603 56.697 4.72628 56.697C7.33654 56.697 9.45257 54.5825 9.45257 51.9741Z" fill="#0A003A" fill-opacity="0.37"/>
<path d="M56.7475 51.9741C56.7475 49.3657 54.6315 47.2511 52.0212 47.2511C49.411 47.2511 47.2949 49.3657 47.2949 51.9741C47.2949 54.5825 49.411 56.697 52.0212 56.697C54.6315 56.697 56.7475 54.5825 56.7475 51.9741Z" fill="#0A003A" fill-opacity="0.37"/>
<path d="M104.032 51.9741C104.032 49.3657 101.916 47.2511 99.3054 47.2511C96.6951 47.2511 94.5791 49.3657 94.5791 51.9741C94.5791 54.5825 96.6951 56.697 99.3054 56.697C101.916 56.697 104.032 54.5825 104.032 51.9741Z" fill="#0A003A" fill-opacity="0.37"/>
<path d="M151.317 51.9741C151.317 49.3657 149.201 47.2511 146.591 47.2511C143.98 47.2511 141.864 49.3657 141.864 51.9741C141.864 54.5825 143.98 56.697 146.591 56.697C149.201 56.697 151.317 54.5825 151.317 51.9741Z" fill="#0A003A" fill-opacity="0.37"/>
<path d="M198.612 51.9741C198.612 49.3657 196.496 47.2511 193.885 47.2511C191.275 47.2511 189.159 49.3657 189.159 51.9741C189.159 54.5825 191.275 56.697 193.885 56.697C196.496 56.697 198.612 54.5825 198.612 51.9741Z" fill="#0A003A" fill-opacity="0.37"/>
<path d="M245.896 51.9741C245.896 49.3657 243.78 47.2511 241.17 47.2511C238.559 47.2511 236.443 49.3657 236.443 51.9741C236.443 54.5825 238.559 56.697 241.17 56.697C243.78 56.697 245.896 54.5825 245.896 51.9741Z" fill="#0A003A" fill-opacity="0.37"/>
<path d="M293.191 51.9741C293.191 49.3657 291.075 47.2511 288.465 47.2511C285.854 47.2511 283.738 49.3657 283.738 51.9741C283.738 54.5825 285.854 56.697 288.465 56.697C291.075 56.697 293.191 54.5825 293.191 51.9741Z" fill="#0A003A" fill-opacity="0.37"/>
<path d="M340.476 51.9741C340.476 49.3657 338.36 47.2511 335.75 47.2511C333.139 47.2511 331.023 49.3657 331.023 51.9741C331.023 54.5825 333.139 56.697 335.75 56.697C338.36 56.697 340.476 54.5825 340.476 51.9741Z" fill="#0A003A" fill-opacity="0.37"/>
<path d="M387.76 51.9741C387.76 49.3657 385.644 47.2511 383.034 47.2511C380.424 47.2511 378.308 49.3657 378.308 51.9741C378.308 54.5825 380.424 56.697 383.034 56.697C385.644 56.697 387.76 54.5825 387.76 51.9741Z" fill="#0A003A" fill-opacity="0.37"/>
<path d="M9.45257 99.2359C9.45257 96.6275 7.33654 94.5129 4.72628 94.5129C2.11603 94.5129 -3.20464e-07 96.6275 -2.06446e-07 99.2359C-9.24288e-08 101.844 2.11603 103.959 4.72628 103.959C7.33654 103.959 9.45257 101.844 9.45257 99.2359Z" fill="#0A003A" fill-opacity="0.37"/>
<path d="M56.7475 99.2359C56.7475 96.6275 54.6315 94.5129 52.0212 94.5129C49.411 94.5129 47.2949 96.6275 47.2949 99.2359C47.2949 101.844 49.411 103.959 52.0212 103.959C54.6315 103.959 56.7475 101.844 56.7475 99.2359Z" fill="#0A003A" fill-opacity="0.37"/>
<path d="M104.032 99.2359C104.032 96.6275 101.916 94.5129 99.3054 94.5129C96.6951 94.5129 94.5791 96.6275 94.5791 99.2359C94.5791 101.844 96.6951 103.959 99.3054 103.959C101.916 103.959 104.032 101.844 104.032 99.2359Z" fill="#0A003A" fill-opacity="0.37"/>
<path d="M151.317 99.2359C151.317 96.6275 149.201 94.5129 146.591 94.5129C143.98 94.5129 141.864 96.6275 141.864 99.2359C141.864 101.844 143.98 103.959 146.591 103.959C149.201 103.959 151.317 101.844 151.317 99.2359Z" fill="#0A003A" fill-opacity="0.37"/>
<path d="M198.612 99.2359C198.612 96.6275 196.496 94.5129 193.885 94.5129C191.275 94.5129 189.159 96.6275 189.159 99.2359C189.159 101.844 191.275 103.959 193.885 103.959C196.496 103.959 198.612 101.844 198.612 99.2359Z" fill="#0A003A" fill-opacity="0.37"/>
<path d="M245.896 99.2359C245.896 96.6275 243.78 94.5129 241.17 94.5129C238.559 94.5129 236.443 96.6275 236.443 99.2359C236.443 101.844 238.559 103.959 241.17 103.959C243.78 103.959 245.896 101.844 245.896 99.2359Z" fill="#0A003A" fill-opacity="0.37"/>
<path d="M293.191 99.2359C293.191 96.6275 291.075 94.5129 288.465 94.5129C285.854 94.5129 283.738 96.6275 283.738 99.2359C283.738 101.844 285.854 103.959 288.465 103.959C291.075 103.959 293.191 101.844 293.191 99.2359Z" fill="#0A003A" fill-opacity="0.37"/>
<path d="M340.476 99.2359C340.476 96.6275 338.36 94.5129 335.75 94.5129C333.139 94.5129 331.023 96.6275 331.023 99.2359C331.023 101.844 333.139 103.959 335.75 103.959C338.36 103.959 340.476 101.844 340.476 99.2359Z" fill="#0A003A" fill-opacity="0.37"/>
<path d="M387.76 99.2359C387.76 96.6275 385.644 94.5129 383.034 94.5129C380.424 94.5129 378.308 96.6275 378.308 99.2359C378.308 101.844 380.424 103.959 383.034 103.959C385.644 103.959 387.76 101.844 387.76 99.2359Z" fill="#0A003A" fill-opacity="0.37"/>
<path d="M9.45257 146.487C9.45257 143.879 7.33654 141.764 4.72628 141.764C2.11603 141.764 -3.20464e-07 143.879 -2.06446e-07 146.487C-9.24288e-08 149.095 2.11603 151.21 4.72628 151.21C7.33654 151.21 9.45257 149.095 9.45257 146.487Z" fill="#0A003A" fill-opacity="0.37"/>
<path d="M56.7475 146.487C56.7475 143.879 54.6315 141.764 52.0212 141.764C49.411 141.764 47.2949 143.879 47.2949 146.487C47.2949 149.095 49.411 151.21 52.0212 151.21C54.6315 151.21 56.7475 149.095 56.7475 146.487Z" fill="#0A003A" fill-opacity="0.37"/>
<path d="M104.032 146.487C104.032 143.879 101.916 141.764 99.3054 141.764C96.6951 141.764 94.5791 143.879 94.5791 146.487C94.5791 149.095 96.6951 151.21 99.3054 151.21C101.916 151.21 104.032 149.095 104.032 146.487Z" fill="#0A003A" fill-opacity="0.37"/>
<path d="M151.317 146.487C151.317 143.879 149.201 141.764 146.591 141.764C143.98 141.764 141.864 143.879 141.864 146.487C141.864 149.095 143.98 151.21 146.591 151.21C149.201 151.21 151.317 149.095 151.317 146.487Z" fill="#0A003A" fill-opacity="0.37"/>
<path d="M198.612 146.487C198.612 143.879 196.496 141.764 193.885 141.764C191.275 141.764 189.159 143.879 189.159 146.487C189.159 149.095 191.275 151.21 193.885 151.21C196.496 151.21 198.612 149.095 198.612 146.487Z" fill="#0A003A" fill-opacity="0.37"/>
<path d="M245.896 146.487C245.896 143.879 243.78 141.764 241.17 141.764C238.559 141.764 236.443 143.879 236.443 146.487C236.443 149.095 238.559 151.21 241.17 151.21C243.78 151.21 245.896 149.095 245.896 146.487Z" fill="#0A003A" fill-opacity="0.37"/>
<path d="M293.191 146.487C293.191 143.879 291.075 141.764 288.465 141.764C285.854 141.764 283.738 143.879 283.738 146.487C283.738 149.095 285.854 151.21 288.465 151.21C291.075 151.21 293.191 149.095 293.191 146.487Z" fill="#0A003A" fill-opacity="0.37"/>
<path d="M340.476 146.487C340.476 143.879 338.36 141.764 335.75 141.764C333.139 141.764 331.023 143.879 331.023 146.487C331.023 149.095 333.139 151.21 335.75 151.21C338.36 151.21 340.476 149.095 340.476 146.487Z" fill="#0A003A" fill-opacity="0.37"/>
<path d="M387.76 146.487C387.76 143.879 385.644 141.764 383.034 141.764C380.424 141.764 378.308 143.879 378.308 146.487C378.308 149.095 380.424 151.21 383.034 151.21C385.644 151.21 387.76 149.095 387.76 146.487Z" fill="#0A003A" fill-opacity="0.37"/>
<path d="M9.45257 193.738C9.45257 191.13 7.33654 189.015 4.72628 189.015C2.11603 189.015 -3.20465e-07 191.13 -2.06448e-07 193.738C-9.24302e-08 196.347 2.11603 198.461 4.72628 198.461C7.33654 198.461 9.45257 196.347 9.45257 193.738Z" fill="#0A003A" fill-opacity="0.37"/>
<path d="M56.7475 193.738C56.7475 191.13 54.6315 189.015 52.0212 189.015C49.411 189.015 47.2949 191.13 47.2949 193.738C47.2949 196.347 49.411 198.461 52.0212 198.461C54.6315 198.461 56.7475 196.347 56.7475 193.738Z" fill="#0A003A" fill-opacity="0.37"/>
<path d="M104.032 193.738C104.032 191.13 101.916 189.015 99.3054 189.015C96.6951 189.015 94.5791 191.13 94.5791 193.738C94.5791 196.347 96.6951 198.461 99.3054 198.461C101.916 198.461 104.032 196.347 104.032 193.738Z" fill="#0A003A" fill-opacity="0.37"/>
<path d="M151.317 193.738C151.317 191.13 149.201 189.015 146.591 189.015C143.98 189.015 141.864 191.13 141.864 193.738C141.864 196.347 143.98 198.461 146.591 198.461C149.201 198.461 151.317 196.347 151.317 193.738Z" fill="#0A003A" fill-opacity="0.37"/>
<path d="M198.612 193.738C198.612 191.13 196.496 189.015 193.885 189.015C191.275 189.015 189.159 191.13 189.159 193.738C189.159 196.347 191.275 198.461 193.885 198.461C196.496 198.461 198.612 196.347 198.612 193.738Z" fill="#0A003A" fill-opacity="0.37"/>
<path d="M245.896 193.738C245.896 191.13 243.78 189.015 241.17 189.015C238.559 189.015 236.443 191.13 236.443 193.738C236.443 196.347 238.559 198.461 241.17 198.461C243.78 198.461 245.896 196.347 245.896 193.738Z" fill="#0A003A" fill-opacity="0.37"/>
<path d="M293.191 193.738C293.191 191.13 291.075 189.015 288.465 189.015C285.854 189.015 283.738 191.13 283.738 193.738C283.738 196.347 285.854 198.461 288.465 198.461C291.075 198.461 293.191 196.347 293.191 193.738Z" fill="#0A003A" fill-opacity="0.37"/>
<path d="M340.476 193.738C340.476 191.13 338.36 189.015 335.75 189.015C333.139 189.015 331.023 191.13 331.023 193.738C331.023 196.347 333.139 198.461 335.75 198.461C338.36 198.461 340.476 196.347 340.476 193.738Z" fill="#0A003A" fill-opacity="0.37"/>
<path d="M387.76 193.738C387.76 191.13 385.644 189.015 383.034 189.015C380.424 189.015 378.308 191.13 378.308 193.738C378.308 196.347 380.424 198.461 383.034 198.461C385.644 198.461 387.76 196.347 387.76 193.738Z" fill="#0A003A" fill-opacity="0.37"/>
<path d="M9.45257 241C9.45257 238.392 7.33654 236.277 4.72628 236.277C2.11603 236.277 -3.20465e-07 238.392 -2.06447e-07 241C-9.24295e-08 243.608 2.11603 245.723 4.72628 245.723C7.33654 245.723 9.45257 243.608 9.45257 241Z" fill="#0A003A" fill-opacity="0.37"/>
<path d="M56.7475 241C56.7475 238.392 54.6315 236.277 52.0212 236.277C49.411 236.277 47.2949 238.392 47.2949 241C47.2949 243.608 49.411 245.723 52.0212 245.723C54.6315 245.723 56.7475 243.608 56.7475 241Z" fill="#0A003A" fill-opacity="0.37"/>
<path d="M104.032 241C104.032 238.392 101.916 236.277 99.3054 236.277C96.6951 236.277 94.5791 238.392 94.5791 241C94.5791 243.608 96.6951 245.723 99.3054 245.723C101.916 245.723 104.032 243.608 104.032 241Z" fill="#0A003A" fill-opacity="0.37"/>
<path d="M151.317 241C151.317 238.392 149.201 236.277 146.591 236.277C143.98 236.277 141.864 238.392 141.864 241C141.864 243.608 143.98 245.723 146.591 245.723C149.201 245.723 151.317 243.608 151.317 241Z" fill="#0A003A" fill-opacity="0.37"/>
<path d="M198.612 241C198.612 238.392 196.496 236.277 193.885 236.277C191.275 236.277 189.159 238.392 189.159 241C189.159 243.608 191.275 245.723 193.885 245.723C196.496 245.723 198.612 243.608 198.612 241Z" fill="#0A003A" fill-opacity="0.37"/>
<path d="M245.896 241C245.896 238.392 243.78 236.277 241.17 236.277C238.559 236.277 236.443 238.392 236.443 241C236.443 243.608 238.559 245.723 241.17 245.723C243.78 245.723 245.896 243.608 245.896 241Z" fill="#0A003A" fill-opacity="0.37"/>
<path d="M293.191 241C293.191 238.392 291.075 236.277 288.465 236.277C285.854 236.277 283.738 238.392 283.738 241C283.738 243.608 285.854 245.723 288.465 245.723C291.075 245.723 293.191 243.608 293.191 241Z" fill="#0A003A" fill-opacity="0.37"/>
<path d="M340.476 241C340.476 238.392 338.36 236.277 335.75 236.277C333.139 236.277 331.023 238.392 331.023 241C331.023 243.608 333.139 245.723 335.75 245.723C338.36 245.723 340.476 243.608 340.476 241Z" fill="#0A003A" fill-opacity="0.37"/>
<path d="M387.76 241C387.76 238.392 385.644 236.277 383.034 236.277C380.424 236.277 378.308 238.392 378.308 241C378.308 243.608 380.424 245.723 383.034 245.723C385.644 245.723 387.76 243.608 387.76 241Z" fill="#0A003A" fill-opacity="0.37"/>
<path d="M9.45257 288.251C9.45257 285.643 7.33654 283.528 4.72628 283.528C2.11603 283.528 -3.20465e-07 285.643 -2.06447e-07 288.251C-9.24295e-08 290.86 2.11603 292.974 4.72628 292.974C7.33654 292.974 9.45257 290.86 9.45257 288.251Z" fill="#0A003A" fill-opacity="0.37"/>
<path d="M56.7475 288.251C56.7475 285.643 54.6315 283.528 52.0212 283.528C49.411 283.528 47.2949 285.643 47.2949 288.251C47.2949 290.86 49.411 292.974 52.0212 292.974C54.6315 292.974 56.7475 290.86 56.7475 288.251Z" fill="#0A003A" fill-opacity="0.37"/>
<path d="M104.032 288.251C104.032 285.643 101.916 283.528 99.3054 283.528C96.6951 283.528 94.5791 285.643 94.5791 288.251C94.5791 290.86 96.6951 292.974 99.3054 292.974C101.916 292.974 104.032 290.86 104.032 288.251Z" fill="#0A003A" fill-opacity="0.37"/>
<path d="M151.317 288.251C151.317 285.643 149.201 283.528 146.591 283.528C143.98 283.528 141.864 285.643 141.864 288.251C141.864 290.86 143.98 292.974 146.591 292.974C149.201 292.974 151.317 290.86 151.317 288.251Z" fill="#0A003A" fill-opacity="0.37"/>
<path d="M198.612 288.251C198.612 285.643 196.496 283.528 193.885 283.528C191.275 283.528 189.159 285.643 189.159 288.251C189.159 290.86 191.275 292.974 193.885 292.974C196.496 292.974 198.612 290.86 198.612 288.251Z" fill="#0A003A" fill-opacity="0.37"/>
<path d="M245.896 288.251C245.896 285.643 243.78 283.528 241.17 283.528C238.559 283.528 236.443 285.643 236.443 288.251C236.443 290.86 238.559 292.974 241.17 292.974C243.78 292.974 245.896 290.86 245.896 288.251Z" fill="#0A003A" fill-opacity="0.37"/>
<path d="M293.191 288.251C293.191 285.643 291.075 283.528 288.465 283.528C285.854 283.528 283.738 285.643 283.738 288.251C283.738 290.86 285.854 292.974 288.465 292.974C291.075 292.974 293.191 290.86 293.191 288.251Z" fill="#0A003A" fill-opacity="0.37"/>
<path d="M340.476 288.251C340.476 285.643 338.36 283.528 335.75 283.528C333.139 283.528 331.023 285.643 331.023 288.251C331.023 290.86 333.139 292.974 335.75 292.974C338.36 292.974 340.476 290.86 340.476 288.251Z" fill="#0A003A" fill-opacity="0.37"/>
<path d="M387.76 288.251C387.76 285.643 385.644 283.528 383.034 283.528C380.424 283.528 378.308 285.643 378.308 288.251C378.308 290.859 380.424 292.974 383.034 292.974C385.644 292.974 387.76 290.859 387.76 288.251Z" fill="#0A003A" fill-opacity="0.37"/>
<path d="M9.45257 335.513C9.45257 332.905 7.33654 330.79 4.72628 330.79C2.11603 330.79 -3.20465e-07 332.905 -2.06447e-07 335.513C-9.24295e-08 338.121 2.11603 340.236 4.72628 340.236C7.33654 340.236 9.45257 338.121 9.45257 335.513Z" fill="#0A003A" fill-opacity="0.37"/>
<path d="M56.7475 335.513C56.7475 332.905 54.6315 330.79 52.0212 330.79C49.411 330.79 47.2949 332.905 47.2949 335.513C47.2949 338.121 49.411 340.236 52.0212 340.236C54.6315 340.236 56.7475 338.121 56.7475 335.513Z" fill="#0A003A" fill-opacity="0.37"/>
<path d="M104.032 335.513C104.032 332.905 101.916 330.79 99.3054 330.79C96.6951 330.79 94.5791 332.905 94.5791 335.513C94.5791 338.121 96.6951 340.236 99.3054 340.236C101.916 340.236 104.032 338.121 104.032 335.513Z" fill="#0A003A" fill-opacity="0.37"/>
<path d="M151.317 335.513C151.317 332.905 149.201 330.79 146.591 330.79C143.98 330.79 141.864 332.905 141.864 335.513C141.864 338.121 143.98 340.236 146.591 340.236C149.201 340.236 151.317 338.121 151.317 335.513Z" fill="#0A003A" fill-opacity="0.37"/>
<path d="M198.612 335.513C198.612 332.905 196.496 330.79 193.885 330.79C191.275 330.79 189.159 332.905 189.159 335.513C189.159 338.121 191.275 340.236 193.885 340.236C196.496 340.236 198.612 338.121 198.612 335.513Z" fill="#0A003A" fill-opacity="0.37"/>
<path d="M245.896 335.513C245.896 332.905 243.78 330.79 241.17 330.79C238.559 330.79 236.443 332.905 236.443 335.513C236.443 338.121 238.559 340.236 241.17 340.236C243.78 340.236 245.896 338.121 245.896 335.513Z" fill="#0A003A" fill-opacity="0.37"/>
<path d="M293.191 335.513C293.191 332.905 291.075 330.79 288.465 330.79C285.854 330.79 283.738 332.905 283.738 335.513C283.738 338.121 285.854 340.236 288.465 340.236C291.075 340.236 293.191 338.121 293.191 335.513Z" fill="#0A003A" fill-opacity="0.37"/>
<path d="M340.476 335.513C340.476 332.905 338.36 330.79 335.75 330.79C333.139 330.79 331.023 332.905 331.023 335.513C331.023 338.121 333.139 340.236 335.75 340.236C338.36 340.236 340.476 338.121 340.476 335.513Z" fill="#0A003A" fill-opacity="0.37"/>
<path d="M387.76 335.513C387.76 332.905 385.644 330.79 383.034 330.79C380.424 330.79 378.308 332.905 378.308 335.513C378.308 338.121 380.424 340.236 383.034 340.236C385.644 340.236 387.76 338.121 387.76 335.513Z" fill="#0A003A" fill-opacity="0.37"/>
<path d="M9.45257 382.764C9.45257 380.156 7.33654 378.041 4.72628 378.041C2.11603 378.041 -3.20465e-07 380.156 -2.06447e-07 382.764C-9.24295e-08 385.373 2.11603 387.487 4.72628 387.487C7.33654 387.487 9.45257 385.373 9.45257 382.764Z" fill="#0A003A" fill-opacity="0.37"/>
<path d="M56.7475 382.764C56.7475 380.156 54.6315 378.041 52.0212 378.041C49.411 378.041 47.2949 380.156 47.2949 382.764C47.2949 385.373 49.411 387.487 52.0212 387.487C54.6315 387.487 56.7475 385.373 56.7475 382.764Z" fill="#0A003A" fill-opacity="0.37"/>
<path d="M104.032 382.764C104.032 380.156 101.916 378.041 99.3054 378.041C96.6951 378.041 94.5791 380.156 94.5791 382.764C94.5791 385.373 96.6951 387.487 99.3054 387.487C101.916 387.487 104.032 385.373 104.032 382.764Z" fill="#0A003A" fill-opacity="0.37"/>
<path d="M151.317 382.764C151.317 380.156 149.201 378.041 146.591 378.041C143.98 378.041 141.864 380.156 141.864 382.764C141.864 385.373 143.98 387.487 146.591 387.487C149.201 387.487 151.317 385.373 151.317 382.764Z" fill="#0A003A" fill-opacity="0.37"/>
<path d="M198.612 382.764C198.612 380.156 196.496 378.041 193.885 378.041C191.275 378.041 189.159 380.156 189.159 382.764C189.159 385.373 191.275 387.487 193.885 387.487C196.496 387.487 198.612 385.373 198.612 382.764Z" fill="#0A003A" fill-opacity="0.37"/>
<path d="M245.896 382.764C245.896 380.156 243.78 378.041 241.17 378.041C238.559 378.041 236.443 380.156 236.443 382.764C236.443 385.373 238.559 387.487 241.17 387.487C243.78 387.487 245.896 385.373 245.896 382.764Z" fill="#0A003A" fill-opacity="0.37"/>
<path d="M293.191 382.764C293.191 380.156 291.075 378.041 288.465 378.041C285.854 378.041 283.738 380.156 283.738 382.764C283.738 385.373 285.854 387.487 288.465 387.487C291.075 387.487 293.191 385.373 293.191 382.764Z" fill="#0A003A" fill-opacity="0.37"/>
<path d="M340.476 382.764C340.476 380.156 338.36 378.041 335.75 378.041C333.139 378.041 331.023 380.156 331.023 382.764C331.023 385.373 333.139 387.487 335.75 387.487C338.36 387.487 340.476 385.373 340.476 382.764Z" fill="#0A003A" fill-opacity="0.37"/>
<path d="M387.76 382.764C387.76 380.156 385.644 378.041 383.034 378.041C380.424 378.041 378.308 380.156 378.308 382.764C378.308 385.373 380.424 387.487 383.034 387.487C385.644 387.487 387.76 385.373 387.76 382.764Z" fill="#0A003A" fill-opacity="0.37"/>
<path d="M9.45257 430.015C9.45257 427.407 7.33654 425.292 4.72628 425.292C2.11603 425.292 -3.20465e-07 427.407 -2.06447e-07 430.015C-9.24295e-08 432.623 2.11603 434.738 4.72628 434.738C7.33654 434.738 9.45257 432.623 9.45257 430.015Z" fill="#0A003A" fill-opacity="0.37"/>
<path d="M56.7475 430.015C56.7475 427.407 54.6315 425.292 52.0212 425.292C49.411 425.292 47.2949 427.407 47.2949 430.015C47.2949 432.623 49.411 434.738 52.0212 434.738C54.6315 434.738 56.7475 432.623 56.7475 430.015Z" fill="#0A003A" fill-opacity="0.37"/>
<path d="M104.032 430.015C104.032 427.407 101.916 425.292 99.3054 425.292C96.6951 425.292 94.5791 427.407 94.5791 430.015C94.5791 432.623 96.6951 434.738 99.3054 434.738C101.916 434.738 104.032 432.623 104.032 430.015Z" fill="#0A003A" fill-opacity="0.37"/>
<path d="M151.317 430.015C151.317 427.407 149.201 425.292 146.591 425.292C143.98 425.292 141.864 427.407 141.864 430.015C141.864 432.623 143.98 434.738 146.591 434.738C149.201 434.738 151.317 432.623 151.317 430.015Z" fill="#0A003A" fill-opacity="0.37"/>
<path d="M198.612 430.015C198.612 427.407 196.496 425.292 193.885 425.292C191.275 425.292 189.159 427.407 189.159 430.015C189.159 432.623 191.275 434.738 193.885 434.738C196.496 434.738 198.612 432.623 198.612 430.015Z" fill="#0A003A" fill-opacity="0.37"/>
<path d="M245.896 430.015C245.896 427.407 243.78 425.292 241.17 425.292C238.559 425.292 236.443 427.407 236.443 430.015C236.443 432.623 238.559 434.738 241.17 434.738C243.78 434.738 245.896 432.623 245.896 430.015Z" fill="#0A003A" fill-opacity="0.37"/>
<path d="M293.191 430.015C293.191 427.407 291.075 425.292 288.465 425.292C285.854 425.292 283.738 427.407 283.738 430.015C283.738 432.623 285.854 434.738 288.465 434.738C291.075 434.738 293.191 432.623 293.191 430.015Z" fill="#0A003A" fill-opacity="0.37"/>
<path d="M340.476 430.015C340.476 427.407 338.36 425.292 335.75 425.292C333.139 425.292 331.023 427.407 331.023 430.015C331.023 432.623 333.139 434.738 335.75 434.738C338.36 434.738 340.476 432.623 340.476 430.015Z" fill="#0A003A" fill-opacity="0.37"/>
<path d="M387.76 430.015C387.76 427.407 385.644 425.292 383.034 425.292C380.424 425.292 378.308 427.407 378.308 430.015C378.308 432.623 380.424 434.738 383.034 434.738C385.644 434.738 387.76 432.623 387.76 430.015Z" fill="#0A003A" fill-opacity="0.37"/>
<path d="M9.45257 477.277C9.45257 474.669 7.33654 472.554 4.72628 472.554C2.11603 472.554 -3.20465e-07 474.669 -2.06447e-07 477.277C-9.24295e-08 479.885 2.11603 482 4.72628 482C7.33654 482 9.45257 479.885 9.45257 477.277Z" fill="#0A003A" fill-opacity="0.37"/>
<path d="M56.7475 477.277C56.7475 474.669 54.6315 472.554 52.0212 472.554C49.411 472.554 47.2949 474.669 47.2949 477.277C47.2949 479.885 49.411 482 52.0212 482C54.6315 482 56.7475 479.885 56.7475 477.277Z" fill="#0A003A" fill-opacity="0.37"/>
<path d="M104.032 477.277C104.032 474.669 101.916 472.554 99.3054 472.554C96.6951 472.554 94.5791 474.669 94.5791 477.277C94.5791 479.885 96.6951 482 99.3054 482C101.916 482 104.032 479.885 104.032 477.277Z" fill="#0A003A" fill-opacity="0.37"/>
<path d="M151.317 477.277C151.317 474.669 149.201 472.554 146.591 472.554C143.98 472.554 141.864 474.669 141.864 477.277C141.864 479.885 143.98 482 146.591 482C149.201 482 151.317 479.885 151.317 477.277Z" fill="#0A003A" fill-opacity="0.37"/>
<path d="M198.612 477.277C198.612 474.669 196.496 472.554 193.885 472.554C191.275 472.554 189.159 474.669 189.159 477.277C189.159 479.885 191.275 482 193.885 482C196.496 482 198.612 479.885 198.612 477.277Z" fill="#0A003A" fill-opacity="0.37"/>
<path d="M245.896 477.277C245.896 474.669 243.78 472.554 241.17 472.554C238.559 472.554 236.443 474.669 236.443 477.277C236.443 479.885 238.559 482 241.17 482C243.78 482 245.896 479.885 245.896 477.277Z" fill="#0A003A" fill-opacity="0.37"/>
<path d="M293.191 477.277C293.191 474.669 291.075 472.554 288.465 472.554C285.854 472.554 283.738 474.669 283.738 477.277C283.738 479.885 285.854 482 288.465 482C291.075 482 293.191 479.885 293.191 477.277Z" fill="#0A003A" fill-opacity="0.37"/>
<path d="M340.476 477.277C340.476 474.669 338.36 472.554 335.75 472.554C333.139 472.554 331.023 474.669 331.023 477.277C331.023 479.885 333.139 482 335.75 482C338.36 482 340.476 479.885 340.476 477.277Z" fill="#0A003A" fill-opacity="0.37"/>
<path d="M387.76 477.277C387.76 474.669 385.644 472.554 383.034 472.554C380.424 472.554 378.308 474.669 378.308 477.277C378.308 479.885 380.424 482 383.034 482C385.644 482 387.76 479.885 387.76 477.277Z" fill="#0A003A" fill-opacity="0.37"/>
</g>
</g>
</g>
<defs>
<clipPath id="clip0_41_687">
<rect width="482" height="677" fill="white" transform="translate(0 482) rotate(-90)"/>
</clipPath>
</defs>
</svg>
